<svg id="Layer_1" data-name="Layer 1" xmlns="http://www.w3.org/2000/svg" viewBox="0 0 148 148"><defs><style>.cls-1{opacity:0.33;}.cls-2{fill:#fff;}</style></defs><g id="pokeball"><g id="pokeTop" class="cls-1"><path class="cls-2" d="M72.6,58.2a17,17,0,0,1,17.8,9.6l57-8A74,74,0,0,0,1.2,80.3l57-8A17,17,0,0,1,72.6,58.2Z" transform="translate(-1 -1)"/></g><g id="pokeBottom"><path class="cls-2" d="M77.4,91.8a17,17,0,0,1-17.8-9.6l-57,8A74,74,0,0,0,148.8,69.7l-57,8A17,17,0,0,1,77.4,91.8Z" transform="translate(-1 -1)"/></g><g id="pokeButton"><circle class="cls-2" cx="74" cy="74" r="11"/></g></g></svg>