<svg id="pokeball" xmlns="http://www.w3.org/2000/svg" viewBox="0 0 148 148"><defs><style>.cls-1{fill:#fff;}.cls-2{opacity:0.5;}.cls-3{opacity:0.95;}</style></defs><g id="pokeButton"><circle class="cls-1" cx="74" cy="74" r="20"/></g><g id="pokeTop" class="cls-2"><path class="cls-1" d="M59.7,52.8a27,27,0,0,1,34.3,3L132.9,29A74,74,0,0,0,11.4,112.8L50.3,85.9A26.9,26.9,0,0,1,59.7,52.8Z" transform="translate(-1 -1)"/></g><g id="pokeBottom" class="cls-3"><path class="cls-1" d="M90.3,97.2a27,27,0,0,1-34.3-3L17.1,121A74,74,0,0,0,138.6,37.2L99.7,64.1A26.9,26.9,0,0,1,90.3,97.2Z" transform="translate(-1 -1)"/></g></svg>
