<svg xmlns="http://www.w3.org/2000/svg" viewBox="0 0 150 150"><defs><style>.cls-1{fill:#cc8d8d;}.cls-2{fill:#fff;}.cls-3{opacity:0.5;}.cls-4{opacity:0.95;}</style></defs><g id="Layer_2" data-name="Layer 2"><rect class="cls-1" width="150" height="150"/></g><g id="pokeball"><g id="pokeButton"><circle class="cls-2" cx="75" cy="75" r="20"/></g><g id="pokeTop" class="cls-3"><path class="cls-2" d="M59.7,52.8a27,27,0,0,1,34.3,3L132.9,29A74,74,0,0,0,11.4,112.8L50.3,85.9A26.9,26.9,0,0,1,59.7,52.8Z" transform="translate(0)"/></g><g id="pokeBottom" class="cls-4"><path class="cls-2" d="M90.3,97.2a27,27,0,0,1-34.3-3L17.1,121A74,74,0,0,0,138.6,37.2L99.7,64.1A26.9,26.9,0,0,1,90.3,97.2Z" transform="translate(0)"/></g></g></svg>
